<svg width="103" height="103" viewBox="0 0 103 103" fill="none" xmlns="http://www.w3.org/2000/svg">
<path d="M88.9593 54.0043C121.858 91.4782 91.4782 121.858 54.0043 88.9593C16.5304 121.858 -13.8496 91.4782 19.0493 54.0043C-13.8496 16.5304 16.5304 -13.8496 54.0043 19.0493C91.4782 -13.8496 121.858 16.5304 88.9593 54.0043Z" fill="#231F20"/>
<mask id="mask0_2_329" style="mask-type:alpha" maskUnits="userSpaceOnUse" x="0" y="0" width="98" height="98">
<path d="M83.9507 48.9957C116.85 86.4696 86.4696 116.85 48.9957 83.9507C11.5219 116.85 -18.8582 86.4696 14.0407 48.9957C-18.8582 11.5219 11.5219 -18.8582 48.9957 14.0407C86.4696 -18.8582 116.85 11.5219 83.9507 48.9957Z" fill="#231F20"/>
</mask>
<g mask="url(#mask0_2_329)">
<rect x="-51.0876" y="-6.01031" width="188.323" height="125.215" fill="#FFB800" style="mix-blend-mode:multiply"/>
</g>
</svg>
