<svg width="189" height="202" viewBox="0 0 189 202" fill="none" xmlns="http://www.w3.org/2000/svg">
<path d="M105.348 64.399L105.515 65.3198L106.188 64.6688L150.743 21.5365L124.294 78.1123L123.907 78.9414L124.814 78.8196L185.745 70.638L131.727 100.563L130.937 101L131.727 101.437L185.745 131.362L124.814 123.18L123.907 123.059L124.294 123.888L150.743 180.464L106.188 137.331L105.515 136.68L105.348 137.601L94.1546 199.203L82.9612 137.601L82.7939 136.68L82.1215 137.331L37.5663 180.464L64.0149 123.888L64.4025 123.059L63.4954 123.18L2.56399 131.362L56.5823 101.437L57.3718 101L56.5823 100.563L2.56396 70.638L63.4954 78.8196L64.4025 78.9414L64.0149 78.1123L37.5664 21.5365L82.1215 64.6688L82.7939 65.3198L82.9612 64.399L94.1546 2.79677L105.348 64.399Z" stroke="black"/>
</svg>
