<svg xmlns="http://www.w3.org/2000/svg" viewBox="0 0 48 48" id="instagram">
  <g>
    <rect width="44" height="44" x="2" y="2" fill="#1c1c1c" rx="9.04"></rect>
    <path fill="#fff" d="M18.58,24.07A5.43,5.43,0,1,1,24,29.49a5.42,5.42,0,0,1-5.42-5.42Zm-2.94,0A8.36,8.36,0,1,0,24,15.71a8.36,8.36,0,0,0-8.36,8.36Zm15.09-8.69a2,2,0,1,0,2-2,2,2,0,0,0-2,2ZM17.42,37.32a9.08,9.08,0,0,1-3-.56,5.42,5.42,0,0,1-3.09-3.09,9,9,0,0,1-.56-3c-.08-1.72-.09-2.23-.09-6.58s0-4.86.09-6.58a9,9,0,0,1,.56-3,5.42,5.42,0,0,1,3.09-3.09,9.08,9.08,0,0,1,3-.56c1.72-.08,2.23-.09,6.58-.09s4.86,0,6.58.09a9,9,0,0,1,3,.56,5.42,5.42,0,0,1,3.09,3.09,9,9,0,0,1,.56,3c.08,1.72.09,2.23.09,6.58s0,4.86-.09,6.58a9,9,0,0,1-.56,3,5.42,5.42,0,0,1-3.09,3.09,9,9,0,0,1-3,.56c-1.72.08-2.23.09-6.58.09s-4.86,0-6.58-.09ZM17.29,7.89a12,12,0,0,0-3.95.76,7.8,7.8,0,0,0-2.88,1.88,7.92,7.92,0,0,0-1.88,2.88,12,12,0,0,0-.76,3.95c-.08,1.74-.1,2.29-.1,6.71s0,5,.1,6.71a12,12,0,0,0,.76,3.95,8.36,8.36,0,0,0,4.76,4.76,12,12,0,0,0,3.95.76c1.74.08,2.29.1,6.71.1s5,0,6.71-.1a12,12,0,0,0,3.95-.76,8.36,8.36,0,0,0,4.76-4.76,12,12,0,0,0,.76-3.95c.08-1.74.1-2.29.1-6.71s0-5-.1-6.71a12,12,0,0,0-.76-3.95,7.92,7.92,0,0,0-1.88-2.88,7.8,7.8,0,0,0-2.88-1.88,12,12,0,0,0-3.95-.76c-1.74-.08-2.29-.1-6.71-.1s-5,0-6.71.1Z"></path>
  </g>
</svg>
