<svg xmlns="http://www.w3.org/2000/svg" viewBox="0 0 293.35 293.35" id="linkedin">
  <rect width="293.35" height="293.35" fill="#3c3c3b"></rect>
  <path fill="#fefffc" d="M69.95 97.51c-3.86-3.59-5.79-8.03-5.79-13.31s1.93-9.92 5.79-13.51c3.86-3.59 8.84-5.38 14.93-5.38s10.87 1.8 14.73 5.38c3.86 3.59 5.79 8.1 5.79 13.51s-1.93 9.72-5.79 13.31c-3.86 3.59-8.77 5.38-14.73 5.38s-11.07-1.79-14.93-5.38zm32.2 20.58v109.96h-34.74v-109.96h34.74zM217.83 128.94c7.57 8.22 11.36 19.51 11.36 33.88v63.29h-33v-58.82c0-7.25-1.88-12.88-5.63-16.89-3.76-4.01-8.8-6.02-15.14-6.02s-11.39 2.01-15.14 6.02c-3.76 4.01-5.63 9.64-5.63 16.89v58.82h-33.2v-108.33h33.2v14.37c3.36-4.79 7.89-8.57 13.59-11.36 5.69-2.78 12.1-4.17 19.22-4.17 12.68 0 22.81 4.11 30.38 12.33z"></path>
</svg>
